<svg width="73" height="73" viewBox="0 0 73 73" fill="none" xmlns="http://www.w3.org/2000/svg">
<path fill-rule="evenodd" clip-rule="evenodd" d="M40.1386 0.958294C41.2308 0.330714 42.4728 0 43.7375 0C45.0022 0 46.2443 0.330714 47.3364 0.958294L47.3586 0.970782L69.428 14.32C70.5152 14.9465 71.417 15.842 72.0436 16.9177C72.6702 17.9933 72.9999 19.2116 73 20.4514V43.9156C73 46.4444 71.6296 48.7858 69.4058 50.0595L69.3995 50.0626L31.4466 72.0315L31.4339 72.0408C30.3333 72.6691 29.0835 73 27.8112 73C26.5388 73 25.2891 72.6691 24.1885 72.0408L24.106 71.994L3.4768 57.9392C2.41528 57.3086 1.53736 56.4188 0.928198 55.356C0.319033 54.2933 -0.000703627 53.0936 1.16265e-06 51.8733V28.2936C1.16265e-06 27.0699 0.317227 25.8898 0.900922 24.8596L0.910439 24.8408L0.954851 24.7597C1.58021 23.692 2.47653 22.8023 3.5561 22.1778H3.56245L40.1386 0.958294ZM42.54 5.00115H42.5368L6.81718 25.7274L26.6375 38.9862C27.0075 39.1837 27.4229 39.2846 27.8439 39.2792C28.2649 39.2737 28.6774 39.1621 29.042 38.9549L65.9481 17.7135L44.9192 4.99491C44.5567 4.79083 44.1459 4.68425 43.7283 4.6859C43.3107 4.68754 42.9008 4.79735 42.54 5.00428V5.00115ZM55.5177 29.1397L45.2079 35.0713V58.6354L55.5177 52.6663V29.1397ZM60.2761 26.3987V49.9128L67.0139 46.0104C67.3869 45.7974 67.6965 45.4919 67.9119 45.1243C68.1274 44.7567 68.241 44.34 68.2416 43.9156V21.8157L60.2761 26.3987ZM31.4403 42.9947L40.4495 37.8123V61.3889L30.1936 67.3268V43.5629C30.6186 43.4161 31.0342 43.2288 31.4339 43.0009L31.4403 42.9947ZM25.4352 67.2019V43.566C25.0024 43.418 24.585 43.2298 24.1885 43.004L24.1155 42.9603L4.75839 30.0138V51.8765C4.75839 52.735 5.21837 53.5248 5.96067 53.9494L6.03998 53.9931L25.4352 67.205V67.2019Z" fill="#373737"/>
</svg>
